HIERARCHY
ROOT Hips
{
    OFFSET 0.000000 0.000000 0.000000
    CHANNELS 6 Xposition Yposition Zposition Zrotation Xrotation Yrotation
    JOINT Spine
    {
        OFFSET -0.000000 7.301834 0.000000
        CHANNELS 3 Zrotation Xrotation Yrotation
        JOINT Spine1
        {
            OFFSET -0.000000 19.386312 0.000000
            CHANNELS 3 Zrotation Xrotation Yrotation
            JOINT Neck
            {
                OFFSET -0.000000 19.306698 1.755154
                CHANNELS 3 Zrotation Xrotation Yrotation
                JOINT Head
                {
                    OFFSET -0.000000 12.466545 -1.780935
                    CHANNELS 3 Zrotation Xrotation Yrotation
                    End Site
                    {
                        OFFSET -0.000000 22.261688 0.000000
                    }
                }
            }
            JOINT LeftShoulder
            {
                OFFSET 3.555268 16.609972 -0.220304
                CHANNELS 3 Zrotation Xrotation Yrotation
                JOINT LeftArm
                {
                    OFFSET 13.072458 0.000000 0.000000
                    CHANNELS 3 Zrotation Xrotation Yrotation
                    JOINT LeftForeArm
                    {
                        OFFSET 25.371269 0.000000 0.000000
                        CHANNELS 3 Zrotation Xrotation Yrotation
                        JOINT LeftHand
                        {
                            OFFSET 22.585550 0.000000 0.000000
                            CHANNELS 3 Zrotation Xrotation Yrotation
                            End Site
                            {
                                OFFSET 13.357014 0.000000 0.000000
                            }
                        }
                    }
                }
            }
            JOINT RightShoulder
            {
                OFFSET -3.538182 16.609972 -0.220304
                CHANNELS 3 Zrotation Xrotation Yrotation
                JOINT RightArm
                {
                    OFFSET -13.072458 0.000000 0.000000
                    CHANNELS 3 Zrotation Xrotation Yrotation
                    JOINT RightForeArm
                    {
                        OFFSET -25.371269 0.000000 0.000000
                        CHANNELS 3 Zrotation Xrotation Yrotation
                        JOINT RightHand
                        {
                            OFFSET -22.585550 0.000000 0.000000
                            CHANNELS 3 Zrotation Xrotation Yrotation
                            End Site
                            {
                                OFFSET -13.357014 0.000000 0.000000
                            }
                        }
                    }
                }
            }
        }
    }
    JOINT LeftUpLeg
    {
        OFFSET 8.904675 0.000000 0.000000
        CHANNELS 3 Zrotation Xrotation Yrotation
        JOINT LeftLeg
        {
            OFFSET -0.000000 -39.412514 0.000000
            CHANNELS 3 Zrotation Xrotation Yrotation
            JOINT LeftFoot
            {
                OFFSET -0.000000 -35.646606 0.000000
                CHANNELS 3 Zrotation Xrotation Yrotation
                JOINT LeftToeBase
                {
                    OFFSET -0.000000 -5.788039 13.357014
                    CHANNELS 3 Zrotation Xrotation Yrotation
                    End Site
                    {
                        OFFSET -0.000000 0.000000 3.561870
                    }
                }
            }
        }
    }
    JOINT RightUpLeg
    {
        OFFSET -8.904675 0.000000 0.000000
        CHANNELS 3 Zrotation Xrotation Yrotation
        JOINT RightLeg
        {
            OFFSET -0.000000 -39.412514 0.000000
            CHANNELS 3 Zrotation Xrotation Yrotation
            JOINT RightFoot
            {
                OFFSET -0.000000 -35.646606 0.000000
                CHANNELS 3 Zrotation Xrotation Yrotation
                JOINT RightToeBase
                {
                    OFFSET -0.000000 -5.788039 13.357014
                    CHANNELS 3 Zrotation Xrotation Yrotation
                    End Site
                    {
                        OFFSET -0.000000 0.000000 3.561870
                    }
                }
            }
        }
    }
}
MOTION
Frames:    8
Frame Time:    0.010000
6.866597    78.128448    16.980511    -1.556226    14.694244    6.692006    10.195289    1.064033    10.965153    -28.859528    2.497177    11.702731    -8.232425    6.102594    -14.330010    21.272926    12.179636    -13.444120    -4.119995    -11.490038    -13.420017    -34.228085    41.190231    -63.707420    29.096199    -50.549835    -95.485115    21.279982    -28.489634    -24.313293    -21.100878    -13.637789    14.141942    1.460143    12.289580    36.606972    -0.231618    -19.812771    24.434675    -13.315264    -17.818439    -17.482876    0.828041    -39.570324    -16.186649    -8.485349    34.818642    9.112957    -3.284606    -10.958404    11.882932    0.000000    0.000000    0.000000    -0.127838    -2.550578    -17.249834    -2.977898    25.707363    -6.934993    28.185680    -19.945730    -13.410100    0.000000    0.000000    0.000000    
6.683756    77.927246    17.271454    -2.174021    13.596237    8.135253    9.478478    1.992046    9.714338    -27.771379    1.550978    10.262957    -6.302960    7.027629    -13.774832    19.175537    11.718643    -13.087961    -3.870269    -12.511527    -13.616838    -34.933414    43.050266    -61.490738    29.096199    -50.549835    -95.485115    21.279982    -28.489634    -24.313293    -20.418839    -13.909259    14.499269    3.388920    15.265008    34.696354    -2.236925    -21.183674    28.427916    -13.115656    -18.405785    -20.529507    0.772517    -38.810452    -17.554104    -8.710917    35.227043    9.725112    -3.126163    -11.834539    11.279819    0.000000    0.000000    0.000000    0.833384    -1.079001    -16.568027    -2.543568    25.691458    -7.044283    28.149298    -20.613377    -14.296547    0.000000    0.000000    0.000000    
6.528351    77.752312    17.533918    -2.736461    12.524050    9.269204    8.802608    3.072318    8.794182    -26.177256    0.420224    9.128419    -5.416643    7.956115    -13.406847    17.418205    11.774240    -12.899378    -4.239073    -12.546469    -13.319873    -33.397209    44.826710    -61.819431    29.096199    -50.549835    -95.485115    21.279982    -28.489634    -24.313293    -20.466791    -13.761145    14.770627    6.924008    14.090302    34.292427    -1.620831    -21.419849    29.259007    -14.318780    -18.493900    -21.168325    0.823568    -38.207111    -17.777084    -8.230735    36.065643    8.886637    -3.224857    -12.532815    10.881182    0.000000    0.000000    0.000000    1.799247    0.217730    -16.274086    -2.440559    25.637154    -7.088590    28.092905    -20.946693    -14.863067    0.000000    0.000000    0.000000    
6.415722    77.574036    17.822582    -3.271466    11.510084    10.277770    8.197936    4.127107    7.995186    -24.901978    -1.021278    8.065572    -4.462615    9.528657    -13.079405    16.580376    11.563761    -12.694445    1.704196    -2.142046    -16.330433    -38.778824    34.357891    -62.170811    29.096199    -50.549835    -95.485115    21.279982    -28.489634    -24.313293    -19.791403    -10.621131    14.746792    7.356705    11.633788    35.319225    -0.159015    -22.547453    29.696217    -16.139669    -19.793684    -20.312391    0.840771    -37.758923    -17.069067    -7.003806    37.298038    6.581959    -3.227154    -13.245589    10.775811    0.000000    0.000000    0.000000    2.716330    1.463245    -15.974626    -2.343512    25.500397    -7.198661    27.992279    -21.176741    -15.274201    0.000000    0.000000    0.000000    
6.307754    77.414825    18.165030    -3.907068    10.711205    11.193523    8.017078    4.478302    7.344058    -24.361286    -1.260005    7.386065    -3.335440    9.764333    -12.999028    16.744448    12.044607    -12.754781    4.245567    -0.526290    -17.124172    -40.729465    32.774471    -62.825459    29.096199    -50.549835    -95.485115    21.279982    -28.489634    -24.313293    -19.264833    -10.051362    12.995090    7.356705    11.633788    35.319225    4.232317    -23.407249    34.714104    -20.673876    -21.246460    -19.854982    1.004886    -37.554768    -15.871742    -5.405706    38.741623    3.249237    -3.142090    -14.037463    11.180951    0.000000    0.000000    0.000000    3.719710    2.455177    -15.683446    -2.331096    25.362225    -7.096689    28.045898    -21.240025    -15.758534    0.000000    0.000000    0.000000    
6.256173    77.356628    18.421127    -4.265193    10.551388    11.624853    7.603094    4.111488    7.090653    -23.721943    -1.296605    7.091660    -2.827965    10.198236    -13.003234    17.520536    12.510001    -12.848134    4.597367    -0.580031    -17.463518    -40.593338    33.138031    -63.221252    29.096199    -50.549835    -95.485115    21.279982    -28.489634    -24.313293    -18.770788    -9.483583    11.448771    7.356705    11.633788    35.319225    6.674219    -22.758448    38.562126    -24.653408    -21.083303    -18.782545    0.979459    -37.745201    -14.488587    -2.358094    41.133739    -4.221867    -3.718968    -15.187181    12.996618    0.000000    0.000000    0.000000    4.129727    2.787410    -15.249423    -2.105458    25.188488    -7.533209    28.256418    -20.881115    -15.650100    0.000000    0.000000    0.000000    
6.251528    77.357567    18.626461    -4.471191    10.745997    11.797151    7.045092    3.160354    7.084375    -23.120636    -0.749023    7.125761    -1.939401    10.172618    -13.097426    17.783800    12.998450    -13.067953    4.892632    -1.258808    -18.114525    -41.570644    33.180473    -62.845417    28.628225    -43.733234    -87.746925    12.929367    -22.321007    -24.987123    -17.969194    -8.900549    9.655233    7.356705    11.633788    35.319225    7.545945    -21.931543    41.958218    -27.770987    -20.605898    -17.336048    0.869951    -38.102398    -13.354156    -0.787155    41.831242    -6.987864    -7.042788    -17.180458    15.233936    0.000000    0.000000    0.000000    4.374191    2.665126    -15.424378    -2.523189    25.057800    -7.805083    28.912968    -20.073244    -14.974120    0.000000    0.000000    0.000000    
6.279098    77.403290    18.861143    -4.558145    11.118328    11.608192    6.478205    1.671948    7.047938    -22.592230    0.938961    7.330131    -1.127357    8.261897    -13.139460    17.667995    14.466578    -13.377597    5.616978    -3.264357    -17.913349    -42.397068    34.348461    -63.047245    28.090410    -45.222881    -88.732384    12.002726    -23.817024    -21.977488    -17.533598    -9.441294    7.310286    13.941453    13.480547    44.680302    -8.255985    -25.273275    26.588850    -20.696232    -21.831007    -9.840657    0.828711    -38.485970    -11.918532    0.762023    42.318043    -9.349737    -7.736725    -17.484880    15.816301    0.000000    0.000000    0.000000    4.316064    2.357409    -15.355278    -2.797749    25.149668    -7.603828    29.526888    -19.366898    -14.615549    0.000000    0.000000    0.000000    
